<svg width="150" height="48" viewBox="0 0 150 48" fill="none" xmlns="http://www.w3.org/2000/svg">
<path d="M35 0V13H30V24H35V37H46V0H35ZM0 12V32H27V23H11V20H27V10.12V0H0V9H16V12H0ZM11 35H0V48H46V40H11V35Z" fill="white"/>
<path fill-rule="evenodd" clip-rule="evenodd" d="M57 48L52 37C52.3659 36.7256 52.7569 36.4512 53.1653 36.1645C57.222 33.3173 63 29.262 63 12H53V3H63V0H68H73V3H83V12H73C73 29.2621 78.778 33.3173 82.8347 36.1645L82.8348 36.1645C83.2432 36.4512 83.6342 36.7256 84 37L79 48C72 44 69.8016 40.6693 68 37C66.1984 40.6693 64 44 57 48ZM98 0H87V48H98V0Z" fill="white"/>
<path d="M141 0H150V28H141V19H138V28H129V0H138V9H141V0ZM126 20V28H104V11H117V8H104V0H126V17H113V20H126ZM137 34V31H150V48H104V31H117V34H137ZM137 42V39H117V42H137Z" fill="white"/>
</svg>
