<svg width="78" height="24" viewBox="0 0 78 24" fill="none" xmlns="http://www.w3.org/2000/svg">
<g clip-path="url(#clip0_6:125)">
<path fill-rule="evenodd" clip-rule="evenodd" d="M48.1123 18.7687C43.6056 22.18 37.0733 24 31.4492 24C23.5633 24 16.4639 21.0048 11.093 16.0231C10.671 15.6314 11.0491 15.0975 11.5555 15.4026C17.3518 18.8658 24.5186 20.9493 31.9218 20.9493C36.9147 20.9493 42.4072 19.8885 47.4574 17.6871C48.2203 17.3543 48.8584 18.2002 48.1123 18.7687Z" fill="#FF9900"/>
<path fill-rule="evenodd" clip-rule="evenodd" d="M49.9861 16.5674C49.4122 15.8117 46.1782 16.2103 44.7266 16.3871C44.2844 16.4426 44.2168 16.0474 44.6152 15.7631C47.1909 13.9015 51.4175 14.4388 51.9103 15.0628C52.4032 15.6903 51.782 20.041 49.3616 22.1176C48.9902 22.4365 48.6358 22.2667 48.8012 21.8437C49.3447 20.4501 50.5634 17.3266 49.9861 16.5674Z" fill="#FF9900"/>
<path fill-rule="evenodd" clip-rule="evenodd" d="M44.8277 2.62086V0.811242C44.8277 0.537373 45.0303 0.353638 45.2733 0.353638H53.1627C53.4159 0.353638 53.6184 0.54084 53.6184 0.811242V2.36086C53.615 2.62086 53.4024 2.9606 53.0243 3.49794L48.9361 9.49187C50.4553 9.45374 52.0588 9.686 53.4361 10.4833C53.7467 10.6636 53.8311 10.9271 53.8547 11.1871V13.118C53.8547 13.3815 53.5711 13.69 53.2741 13.5306C50.8468 12.2236 47.6229 12.0815 44.9391 13.5444C44.6657 13.697 44.3788 13.3919 44.3788 13.1284V11.2946C44.3788 10.9999 44.3821 10.4972 44.6691 10.05L49.4054 3.075H45.2835C45.0303 3.075 44.8277 2.89127 44.8277 2.62086Z" fill="black"/>
<path fill-rule="evenodd" clip-rule="evenodd" d="M16.0487 13.9119H13.6485C13.4189 13.8945 13.2366 13.7177 13.2198 13.4924V0.842414C13.2198 0.589345 13.4257 0.388275 13.6822 0.388275H15.9204C16.1534 0.398668 16.339 0.582409 16.3559 0.811211V2.46483H16.3998C16.9838 0.866679 18.081 0.121338 19.5596 0.121338C21.0618 0.121338 22.0003 0.866679 22.6755 2.46483C23.2561 0.866679 24.576 0.121338 25.9905 0.121338C26.9965 0.121338 28.097 0.547742 28.7688 1.50455C29.5284 2.56883 29.3731 4.11498 29.3731 5.47046L29.3697 13.4543C29.3697 13.7073 29.1638 13.9119 28.9072 13.9119H26.5104C26.2707 13.8945 26.0783 13.6969 26.0783 13.4543V6.74967C26.0783 6.2158 26.1256 4.88459 26.0108 4.37845C25.8319 3.52911 25.2951 3.2899 24.5997 3.2899C24.019 3.2899 23.4114 3.68857 23.165 4.32645C22.9185 4.96432 22.9421 6.03206 22.9421 6.74967V13.4543C22.9421 13.7073 22.7362 13.9119 22.4797 13.9119H20.0828C19.8398 13.8945 19.6507 13.6969 19.6507 13.4543L19.6473 6.74967C19.6473 5.33872 19.8735 3.26217 18.1687 3.26217C16.4437 3.26217 16.5112 5.28672 16.5112 6.74967V13.4543C16.5112 13.7073 16.3053 13.9119 16.0487 13.9119" fill="black"/>
<path fill-rule="evenodd" clip-rule="evenodd" d="M60.4104 0.121338C63.9719 0.121338 65.8995 3.26217 65.8995 7.25581C65.8995 11.1143 63.7694 14.1754 60.4104 14.1754C56.9131 14.1754 55.0091 11.0345 55.0091 7.12061C55.0091 3.18244 56.9367 0.121338 60.4104 0.121338ZM60.4307 2.70403C58.6617 2.70403 58.5503 5.17926 58.5503 6.72194C58.5503 8.26809 58.5267 11.5684 60.4104 11.5684C62.2705 11.5684 62.3583 8.90596 62.3583 7.28354C62.3583 6.2158 62.3144 4.94006 62.0004 3.92778C61.7304 3.04724 61.1936 2.70403 60.4307 2.70403Z" fill="black"/>
<path fill-rule="evenodd" clip-rule="evenodd" d="M70.5177 13.9119H68.1276C67.888 13.8945 67.6955 13.6969 67.6955 13.4543L67.6922 0.800811C67.7124 0.568542 67.9116 0.388275 68.1546 0.388275H70.3793C70.5886 0.398668 70.7608 0.544276 70.8081 0.741878V2.6763H70.8519C71.5237 0.946413 72.4656 0.121338 74.1231 0.121338C75.2 0.121338 76.2499 0.520009 76.925 1.61202C77.5529 2.6243 77.5529 4.32645 77.5529 5.55019V13.5132C77.5259 13.7351 77.3268 13.9119 77.0905 13.9119H74.6835C74.4641 13.8945 74.2818 13.7281 74.2581 13.5132V6.6422C74.2581 5.25899 74.4134 3.23444 72.7559 3.23444C72.1719 3.23444 71.6351 3.63657 71.3684 4.24671C71.0309 5.01979 70.987 5.7894 70.987 6.6422V13.4543C70.9836 13.7073 70.7743 13.9119 70.5177 13.9119" fill="black"/>
<path fill-rule="evenodd" clip-rule="evenodd" d="M38.5385 7.86942C38.5385 8.82969 38.5622 9.6305 38.0895 10.4833C37.7081 11.1767 37.1004 11.6031 36.4286 11.6031C35.507 11.6031 34.9669 10.882 34.9669 9.8177C34.9669 7.71688 36.8 7.33554 38.5385 7.33554V7.86942ZM40.959 13.8772C40.8003 14.0228 40.5708 14.0332 40.3919 13.9361C39.5952 13.2567 39.45 12.9412 39.0145 12.2929C37.6979 13.6727 36.7628 14.0852 35.058 14.0852C33.0359 14.0852 31.4662 12.806 31.4662 10.2441C31.4662 8.24382 32.5194 6.88141 34.025 6.2158C35.3281 5.62646 37.1477 5.52246 38.5385 5.35952V5.04059C38.5385 4.45471 38.5824 3.76137 38.2448 3.25524C37.9545 2.8011 37.3941 2.61389 36.8979 2.61389C35.983 2.61389 35.1695 3.09577 34.9703 4.09418C34.9298 4.31605 34.7711 4.53445 34.5517 4.54485L32.2257 4.28831C32.0299 4.24325 31.8105 4.08031 31.8679 3.77177C32.4013 0.873611 34.9534 0 37.2355 0C38.4035 0 39.9294 0.318937 40.851 1.22721C42.019 2.34696 41.9076 3.84111 41.9076 5.46699V9.3081C41.9076 10.4625 42.3735 10.9686 42.8123 11.5927C42.9642 11.8145 42.998 12.0815 42.8022 12.2479C42.3127 12.6673 41.4417 13.4473 40.9624 13.8841L40.959 13.8772" fill="black"/>
<path fill-rule="evenodd" clip-rule="evenodd" d="M7.07236 7.86966C7.07236 8.82993 7.09599 9.63074 6.62337 10.4836C6.2419 11.1769 5.63763 11.6033 4.96246 11.6033C4.04086 11.6033 3.50411 10.8822 3.50411 9.81794C3.50411 7.71712 5.33718 7.33579 7.07236 7.33579V7.86966ZM9.49283 13.8775C9.33417 14.0231 9.10461 14.0335 8.92569 13.9364C8.12899 13.2569 7.98721 12.9414 7.54835 12.2932C6.23178 13.6729 5.30005 14.0855 3.59188 14.0855C1.57313 14.0855 -3.8147e-06 12.8062 -3.8147e-06 10.2444C-3.8147e-06 8.24406 1.05663 6.88165 2.55887 6.21604C3.86194 5.6267 5.68152 5.5227 7.07236 5.35977V5.04083C7.07236 4.45496 7.11625 3.76162 6.78204 3.25548C6.48834 2.80134 5.92795 2.61414 5.43508 2.61414C4.52023 2.61414 3.70328 3.09601 3.50411 4.09442C3.4636 4.31629 3.30493 4.53469 3.08888 4.54509L0.759558 4.28855C0.563759 4.24349 0.347706 4.08055 0.401719 3.77202C0.938477 0.873855 3.48723 0.000244141 5.76929 0.000244141C6.93732 0.000244141 8.4632 0.319181 9.3848 1.22746C10.5528 2.3472 10.4414 3.84135 10.4414 5.46723V9.30834C10.4414 10.4628 10.9073 10.9689 11.3462 11.5929C11.5014 11.8148 11.5352 12.0817 11.3394 12.2481C10.8499 12.6676 9.97895 13.4476 9.49958 13.8844L9.49283 13.8774" fill="black"/>
</g>
<defs>
<clipPath id="clip0_6:125">
<rect width="77.5529" height="24" fill="white"/>
</clipPath>
</defs>
</svg>
