<svg width="72" height="24" viewBox="0 0 72 24" fill="none" xmlns="http://www.w3.org/2000/svg">
<g clip-path="url(#clip0_6:44)">
<path d="M30.4394 12.3078C30.4394 15.6391 27.8123 18.0939 24.5882 18.0939C21.3641 18.0939 18.737 15.6391 18.737 12.3078C18.737 8.95303 21.3641 6.52173 24.5882 6.52173C27.8123 6.52173 30.4394 8.95303 30.4394 12.3078ZM27.878 12.3078C27.878 10.2261 26.3554 8.80173 24.5882 8.80173C22.821 8.80173 21.2984 10.2261 21.2984 12.3078C21.2984 14.3687 22.821 15.8139 24.5882 15.8139C26.3554 15.8139 27.878 14.3661 27.878 12.3078Z" fill="#EA4335"/>
<path d="M43.0622 12.3078C43.0622 15.6391 40.4351 18.0939 37.211 18.0939C33.9869 18.0939 31.3598 15.6391 31.3598 12.3078C31.3598 8.95564 33.9869 6.52173 37.211 6.52173C40.4351 6.52173 43.0622 8.95303 43.0622 12.3078ZM40.5008 12.3078C40.5008 10.2261 38.9782 8.80173 37.211 8.80173C35.4438 8.80173 33.9212 10.2261 33.9212 12.3078C33.9212 14.3687 35.4438 15.8139 37.211 15.8139C38.9782 15.8139 40.5008 14.3661 40.5008 12.3078Z" fill="#FBBC05"/>
<path d="M55.1591 6.87129V17.2591C55.1591 21.5322 52.6188 23.2774 49.6156 23.2774C46.7886 23.2774 45.0871 21.4017 44.4455 19.8678L46.6755 18.9469C47.0726 19.8887 48.0456 21 49.613 21C51.5353 21 52.7266 19.8235 52.7266 17.6087V16.7765H52.6372C52.0639 17.4782 50.9594 18.0913 49.5656 18.0913C46.6492 18.0913 43.9774 15.5713 43.9774 12.3287C43.9774 9.0626 46.6492 6.52173 49.5656 6.52173C50.9568 6.52173 52.0613 7.13477 52.6372 7.81564H52.7266V6.8739H55.1591V6.87129ZM52.9081 12.3287C52.9081 10.2913 51.538 8.80173 49.7944 8.80173C48.0272 8.80173 46.5467 10.2913 46.5467 12.3287C46.5467 14.3452 48.0272 15.8139 49.7944 15.8139C51.538 15.8139 52.9081 14.3452 52.9081 12.3287Z" fill="#4285F4"/>
<path d="M59.1695 0.782593V17.7391H56.6713V0.782593H59.1695Z" fill="#34A853"/>
<path d="M68.905 14.2121L70.8931 15.5269C70.2514 16.4687 68.7051 18.0913 66.0333 18.0913C62.7198 18.0913 60.2452 15.5504 60.2452 12.3052C60.2452 8.86432 62.7408 6.5191 65.7466 6.5191C68.7735 6.5191 70.2541 8.90867 70.7379 10.2L71.0035 10.8574L63.2063 14.0608C63.8033 15.2217 64.7316 15.8139 66.0333 15.8139C67.3377 15.8139 68.2423 15.1774 68.905 14.2121ZM62.7855 12.1304L67.9977 9.98345C67.7111 9.26084 66.8485 8.75736 65.8334 8.75736C64.5317 8.75736 62.7198 9.89736 62.7855 12.1304Z" fill="#EA4335"/>
<path d="M9.28012 10.8026V8.34784H17.6191C17.7006 8.77566 17.7427 9.28175 17.7427 9.82958C17.7427 11.6713 17.2351 13.9487 15.5994 15.5713C14.0084 17.2148 11.9756 18.0913 9.28275 18.0913C4.29147 18.0913 0.0943794 14.0583 0.0943794 9.10697C0.0943794 4.15566 4.29147 0.12262 9.28275 0.12262C12.044 0.12262 14.0111 1.1974 15.489 2.59827L13.7428 4.33045C12.683 3.34436 11.2472 2.5774 9.28012 2.5774C5.63528 2.5774 2.78462 5.49131 2.78462 9.10697C2.78462 12.7226 5.63528 15.6365 9.28012 15.6365C11.6443 15.6365 12.9907 14.6948 13.8533 13.8391C14.5528 13.1452 15.013 12.1539 15.1944 10.8L9.28012 10.8026Z" fill="#4285F4"/>
</g>
<defs>
<clipPath id="clip0_6:44">
<rect width="71.5294" height="24" fill="white"/>
</clipPath>
</defs>
</svg>
