<svg width="235" height="115" viewBox="0 0 235 115" fill="none" xmlns="http://www.w3.org/2000/svg">
<path fill-rule="evenodd" clip-rule="evenodd" d="M24.8178 11.0489C21.0281 16.0702 15.9853 26.2163 9.74532 42.8562L8.34082 46.6015L0.850189 43.7925L2.25468 40.0472C8.51472 23.3538 13.8886 12.2499 18.4322 6.2296C20.5858 3.37612 23.1758 0.799277 26.2779 0.152991C28.0422 -0.214559 29.8051 0.0815736 31.3438 1.03171C32.775 1.91548 33.7783 3.21624 34.4966 4.50915C35.9069 7.0477 36.7673 10.5631 37.3075 14.5471C37.8606 18.6263 38.125 23.5843 38.125 29.2642C38.125 33.686 37.9646 38.5896 37.6452 43.918C39.5961 39.3835 41.397 35.4634 43.0473 32.1629C45.1682 27.921 47.1169 24.5458 48.8937 22.1767C49.7777 20.9981 50.7251 19.9242 51.7434 19.1095C52.7061 18.3393 54.167 17.4517 56 17.4517C58.0923 17.4517 59.6306 18.5842 60.5672 19.833C61.4193 20.9691 61.9078 22.3406 62.2243 23.6066C62.8675 26.1795 63.125 29.7032 63.125 33.9517C63.125 36.7318 63.0132 39.9422 62.7912 43.5791C64.6861 39.1879 66.4383 35.3809 68.0473 32.1629C70.1682 27.921 72.1169 24.5458 73.8938 22.1767C74.7777 20.9981 75.7251 19.9242 76.7434 19.1095C77.7061 18.3393 79.167 17.4517 81 17.4517C83.0923 17.4517 84.6306 18.5842 85.5672 19.833C86.4193 20.9691 86.9078 22.3406 87.2243 23.6066C87.8675 26.1795 88.125 29.7032 88.125 33.9517C88.125 37.6104 87.9313 42.0143 87.5477 47.1548C89.338 44.1489 91.0702 41.8708 92.7957 40.3371C93.9717 39.2917 95.3483 38.4077 96.9338 38.0233C98.6273 37.6128 100.304 37.8388 101.779 38.6254C104.385 40.0154 105.791 42.8358 106.62 45.0472C107.932 48.5442 108.714 53.1281 109.191 57.3839C111.968 52.732 115.342 47.558 118.615 43.8177C120.5 41.663 122.761 39.4951 125.2 38.4683C126.497 37.9219 128.171 37.5618 129.958 38.0547C131.802 38.5634 133.123 39.8008 134.001 41.2067C135.051 42.8865 135.673 45.1225 136.009 47.7815C138.599 41.577 140.945 36.3673 143.047 32.1629C145.168 27.921 147.117 24.5458 148.894 22.1767C149.778 20.9981 150.725 19.9242 151.743 19.1095C152.706 18.3393 154.167 17.4517 156 17.4517C158.092 17.4517 159.631 18.5842 160.567 19.833C161.419 20.9691 161.908 22.3406 162.224 23.6066C162.868 26.1795 163.125 29.7032 163.125 33.9517C163.125 37.6104 162.931 42.0143 162.548 47.1548C164.338 44.1489 166.07 41.8708 167.796 40.3371C168.972 39.2917 170.348 38.4077 171.934 38.0233C173.627 37.6128 175.304 37.8388 176.779 38.6254C179.385 40.0154 180.791 42.8358 181.62 45.0472C182.932 48.5442 183.714 53.1282 184.191 57.3839C186.968 52.732 190.342 47.558 193.615 43.8177C195.5 41.663 197.761 39.4951 200.2 38.4683C201.497 37.9219 203.171 37.5618 204.958 38.0547C206.802 38.5634 208.123 39.8008 209.001 41.2067C210.592 43.7521 211.201 47.575 211.317 52.2111C211.335 52.9121 211.341 53.6472 211.336 54.4176C215.673 49.5753 222.176 45.4391 230.942 47.5643L234.83 48.5066L232.945 56.2814L229.058 55.3391C223.262 53.9342 218.842 57.1931 215.35 62.2305C213.654 64.6765 212.389 67.28 211.542 69.3064C211.123 70.3107 210.815 71.1521 210.614 71.7324C210.515 72.022 210.442 72.2452 210.396 72.3896C210.374 72.4617 210.357 72.514 210.348 72.5449L210.34 72.5717L210.339 72.5739L210.339 72.5749L210.338 72.5776L209.555 75.2648L209.473 75.917L209.368 75.9039L209.22 76.4117L206.062 75.4906L201.535 74.9247L201.626 74.1967L201.54 74.1717L201.696 73.6384L202.031 70.9556C203.061 62.716 203.426 56.6865 203.32 52.4111C203.239 49.1888 202.891 47.2981 202.568 46.2751C201.863 46.7761 200.874 47.6696 199.635 49.0857C196.267 52.9347 192.525 58.8895 189.546 64.0706C188.077 66.6246 186.831 68.9256 185.952 70.5873C185.513 71.4175 185.167 72.0862 184.931 72.5449C184.814 72.7742 184.724 72.9509 184.664 73.0689L184.598 73.2011L184.578 73.2397L184.578 73.2406C184.578 73.2406 184.578 73.2409 184.576 73.2403L177.003 71.4524C177 71.4524 177 71.4524 177 71.4524V71.4455L177 71.4157L176.999 71.2871C176.999 71.1716 176.997 70.9975 176.994 70.771C176.988 70.3179 176.977 69.6556 176.953 68.8327C176.905 67.1844 176.81 64.9041 176.621 62.3759C176.231 57.1751 175.472 51.4364 174.13 47.8562C173.811 47.0051 173.527 46.4668 173.321 46.1374C173.257 46.1893 173.187 46.2486 173.111 46.3164C171.904 47.3892 170.123 49.7335 167.794 54.1704C165.507 58.5264 162.838 64.6083 159.745 72.8562L152.031 70.9556C154.11 54.3236 155.125 42.026 155.125 33.9517C155.125 31.2855 155.013 29.1981 154.824 27.6266C153.558 29.4386 152.018 32.1108 150.203 35.7406C146.132 43.8827 140.982 56.2256 134.745 72.8562L127.031 70.9556C128.061 62.716 128.426 56.6865 128.32 52.4111C128.239 49.1888 127.891 47.2981 127.568 46.2751C126.863 46.7761 125.874 47.6696 124.635 49.0857C121.267 52.9347 117.525 58.8895 114.546 64.0706C113.077 66.6246 111.831 68.9256 110.952 70.5873C110.513 71.4175 110.167 72.0862 109.931 72.5449C109.814 72.7742 109.724 72.9509 109.664 73.0689L109.598 73.2011L109.578 73.2397L109.578 73.2406C109.578 73.2406 109.578 73.2409 109.576 73.2403L102.003 71.4524C102 71.4524 102 71.4524 102 71.4524L102 71.4455L102 71.4157L101.999 71.2871C101.999 71.1716 101.997 70.9975 101.994 70.771C101.988 70.3179 101.977 69.6556 101.953 68.8327C101.905 67.1844 101.81 64.9041 101.621 62.3759C101.231 57.1751 100.472 51.4364 99.1297 47.8562C98.8105 47.0051 98.5266 46.4668 98.3213 46.1374C98.257 46.1893 98.1868 46.2486 98.1106 46.3164C96.9037 47.3892 95.1229 49.7335 92.7935 54.1704C90.5067 58.5264 87.8383 64.6083 84.7453 72.8562L77.0309 70.9556C79.1099 54.3236 80.125 42.026 80.125 33.9517C80.125 31.2855 80.0128 29.1981 79.8241 27.6266C78.5581 29.4386 77.0176 32.1108 75.2027 35.7406C71.1317 43.8827 65.9818 56.2256 59.7453 72.8562L52.0309 70.9556C54.1099 54.3236 55.125 42.026 55.125 33.9517C55.125 31.2855 55.0128 29.1981 54.8241 27.6266C53.5581 29.4386 52.0176 32.1108 50.2027 35.7406C46.1317 43.8827 40.9818 56.2256 34.7453 72.8562L27.0309 70.9556C29.1019 54.3878 30.125 40.1891 30.125 29.2642C30.125 23.7983 29.8686 19.2251 29.38 15.622C28.8786 11.9236 28.1764 9.60575 27.5034 8.3943C27.4785 8.34946 27.4545 8.30776 27.4315 8.26902C27.3378 8.33607 27.2307 8.41813 27.11 8.51837C26.5116 9.01529 25.7437 9.82203 24.8178 11.0489ZM56.881 25.2564C56.8809 25.2572 56.8702 25.2644 56.8492 25.2757C56.8706 25.2612 56.8811 25.2556 56.881 25.2564ZM81.881 25.2564C81.8809 25.2572 81.8702 25.2644 81.8492 25.2757C81.8706 25.2612 81.8811 25.2556 81.881 25.2564ZM156.881 25.2564C156.881 25.2572 156.87 25.2644 156.849 25.2756C156.871 25.2612 156.881 25.2556 156.881 25.2564Z" fill="#1A3997"/>
<path d="M18 91.3192H25.8876L31.3132 104.541H31.5868L37.0123 91.3192H44.9V114.663H38.6993V101.167H38.5169L33.3193 114.48H29.5807L24.383 101.076H24.2007V114.663H18V91.3192Z" fill="#1A3997"/>
<path d="M70.5176 102.991C70.5176 105.59 70.0123 107.782 69.0016 109.568C67.991 111.346 66.627 112.695 64.9096 113.614C63.1923 114.526 61.2774 114.982 59.1649 114.982C57.0372 114.982 55.1147 114.522 53.3974 113.603C51.6876 112.676 50.3274 111.323 49.3168 109.545C48.3137 107.759 47.8122 105.575 47.8122 102.991C47.8122 100.392 48.3137 98.2037 49.3168 96.4256C50.3274 94.6399 51.6876 93.2911 53.3974 92.3792C55.1147 91.4597 57.0372 91 59.1649 91C61.2774 91 63.1923 91.4597 64.9096 92.3792C66.627 93.2911 67.991 94.6399 69.0016 96.4256C70.0123 98.2037 70.5176 100.392 70.5176 102.991ZM63.9978 102.991C63.9978 101.593 63.8116 100.415 63.4393 99.4575C63.0745 98.4925 62.5312 97.763 61.8093 97.2691C61.095 96.7675 60.2135 96.5168 59.1649 96.5168C58.1163 96.5168 57.231 96.7675 56.5091 97.2691C55.7948 97.763 55.2515 98.4925 54.8791 99.4575C54.5144 100.415 54.332 101.593 54.332 102.991C54.332 104.389 54.5144 105.571 54.8791 106.536C55.2515 107.493 55.7948 108.223 56.5091 108.724C57.231 109.218 58.1163 109.465 59.1649 109.465C60.2135 109.465 61.095 109.218 61.8093 108.724C62.5312 108.223 63.0745 107.493 63.4393 106.536C63.8116 105.571 63.9978 104.389 63.9978 102.991Z" fill="#1A3997"/>
<path d="M96.064 102.991C96.064 105.59 95.5587 107.782 94.548 109.568C93.5374 111.346 92.1734 112.695 90.456 113.614C88.7387 114.526 86.8238 114.982 84.7113 114.982C82.5836 114.982 80.6611 114.522 78.9438 113.603C77.234 112.676 75.8738 111.323 74.8632 109.545C73.8601 107.759 73.3586 105.575 73.3586 102.991C73.3586 100.392 73.8601 98.2037 74.8632 96.4256C75.8738 94.6399 77.234 93.2911 78.9438 92.3792C80.6611 91.4597 82.5836 91 84.7113 91C86.8238 91 88.7387 91.4597 90.456 92.3792C92.1734 93.2911 93.5374 94.6399 94.548 96.4256C95.5587 98.2037 96.064 100.392 96.064 102.991ZM89.5442 102.991C89.5442 101.593 89.358 100.415 88.9857 99.4575C88.6209 98.4925 88.0776 97.763 87.3557 97.2691C86.6414 96.7675 85.7599 96.5168 84.7113 96.5168C83.6627 96.5168 82.7774 96.7675 82.0555 97.2691C81.3412 97.763 80.7979 98.4925 80.4256 99.4575C80.0608 100.415 79.8784 101.593 79.8784 102.991C79.8784 104.389 80.0608 105.571 80.4256 106.536C80.7979 107.493 81.3412 108.223 82.0555 108.724C82.7774 109.218 83.6627 109.465 84.7113 109.465C85.7599 109.465 86.6414 109.218 87.3557 108.724C88.0776 108.223 88.6209 107.493 88.9857 106.536C89.358 105.571 89.5442 104.389 89.5442 102.991Z" fill="#1A3997"/>
<path d="M119.194 91.3192V114.663H113.905L105.47 102.398H105.334V114.663H98.9962V91.3192H104.376L112.674 103.538H112.857V91.3192H119.194Z" fill="#1A3997"/>
<path d="M122.192 114.663V91.3192H132.268C134 91.3192 135.516 91.6345 136.816 92.2652C138.115 92.8959 139.126 93.804 139.848 94.9894C140.57 96.1748 140.93 97.5958 140.93 99.2524C140.93 100.924 140.558 102.334 139.813 103.481C139.076 104.629 138.039 105.495 136.702 106.08C135.372 106.665 133.818 106.958 132.04 106.958H126.022V102.034H130.763C131.508 102.034 132.142 101.942 132.667 101.76C133.199 101.57 133.605 101.27 133.886 100.86C134.175 100.449 134.319 99.9135 134.319 99.2524C134.319 98.5837 134.175 98.0403 133.886 97.6224C133.605 97.1969 133.199 96.8853 132.667 96.6877C132.142 96.4826 131.508 96.38 130.763 96.38H128.529V114.663H122.192ZM135.87 103.948L141.706 114.663H134.821L129.122 103.948H135.87Z" fill="#1A3997"/>
<path d="M149.969 91.3192V114.663H143.632V91.3192H149.969Z" fill="#1A3997"/>
<path d="M159.356 91.3192L164.143 107.778H164.325L169.113 91.3192H176.271L168.566 114.663H159.903L152.198 91.3192H159.356Z" fill="#1A3997"/>
<path d="M178.519 114.663V91.3192H195.343V96.4256H184.857V100.438H194.477V105.544H184.857V109.556H195.297V114.663H178.519Z" fill="#1A3997"/>
<path d="M198.486 114.663V91.3192H208.562C210.295 91.3192 211.811 91.6345 213.11 92.2652C214.41 92.8959 215.42 93.804 216.142 94.9894C216.864 96.1748 217.225 97.5958 217.225 99.2524C217.225 100.924 216.853 102.334 216.108 103.481C215.371 104.629 214.334 105.495 212.996 106.08C211.666 106.665 210.112 106.958 208.334 106.958H202.316V102.034H207.058C207.802 102.034 208.437 101.942 208.961 101.76C209.493 101.57 209.9 101.27 210.181 100.86C210.47 100.449 210.614 99.9135 210.614 99.2524C210.614 98.5837 210.47 98.0403 210.181 97.6224C209.9 97.1969 209.493 96.8853 208.961 96.6877C208.437 96.4826 207.802 96.38 207.058 96.38H204.824V114.663H198.486ZM212.164 103.948L218 114.663H211.115L205.416 103.948H212.164Z" fill="#1A3997"/>
</svg>
