<svg width="151" height="13" viewBox="0 0 151 13" fill="none" xmlns="http://www.w3.org/2000/svg">
<path opacity="0.8" d="M9.20028 0.499999V2.348H7.94028V0.64H0.324277V2.6H2.95628C2.71828 3.734 1.69628 4.868 0.156277 4.952V7.024C1.86428 6.982 3.29228 6.184 4.23028 5.092L7.25428 6.898L8.38828 5.162L5.19628 3.342C5.28028 3.09 5.32228 2.852 5.35028 2.6H7.60428V4.364H9.20028V7.08H11.5663V0.499999H9.20028ZM0.870277 12.456H11.5663V7.5H0.870277V12.456ZM3.23628 9.432H9.20028V10.524H3.23628V9.432ZM23.0311 0.499999V6.968H25.3971V0.499999H23.0311ZM18.2151 4.714L21.3231 6.716L22.5271 5.008L19.2091 2.95C19.4751 2.236 19.6151 1.48 19.6151 0.695999L17.2351 0.555999C17.1931 2.88 15.8771 4.546 13.9871 4.77V6.884C15.7091 6.8 17.1931 5.96 18.2151 4.714ZM14.7011 12.456H25.3971V7.388H14.7011V12.456ZM17.0671 9.334H23.0311V10.51H17.0671V9.334ZM33.7679 0.303999C30.6319 0.303999 28.3359 0.891999 28.3359 2.558C28.3359 4.224 30.6319 4.812 33.7679 4.812C36.9039 4.812 39.1999 4.224 39.1999 2.558C39.1999 0.891999 36.9039 0.303999 33.7679 0.303999ZM33.7679 1.998C35.5459 1.998 36.6939 2.166 36.6939 2.558C36.6939 2.964 35.5459 3.118 33.7679 3.118C31.9899 3.118 30.8419 2.964 30.8419 2.558C30.8419 2.166 31.9899 1.998 33.7679 1.998ZM39.8159 5.204H27.7199V6.926H39.8159V5.204ZM39.1159 7.388H28.4059V8.872H36.8059V9.278H28.4339V12.456H39.2419V10.916H30.7439V10.51H39.1159V7.388ZM55.2045 0.499999V2.726H53.5805V0.64H46.2865V7.164H53.5805V4.938H55.2045V7.612H57.5705V0.499999H55.2045ZM51.2425 5.204H48.6245V2.6H51.2425V5.204ZM46.8185 10.062H55.1625V12.596H57.5705V8.032H46.8185V10.062ZM62.9453 0.429999H60.5653V5.288H71.3173V3.328H62.9453V0.429999ZM71.9333 6.114H59.8373V8.088H71.9333V6.114ZM62.9453 8.746H60.5373V12.456H71.3733V10.482H62.9453V8.746ZM87.7419 0.499999V4.896H86.6499V0.555999H84.4519V9.908L82.1559 5.442C82.3379 4.098 82.4219 2.558 82.4219 0.821999L80.1819 0.737999C80.1819 5.96 79.3979 9.278 78.0679 9.488V11.896C79.5799 11.826 80.6999 10.748 81.4419 8.69L82.8979 11.728L84.4519 10.972V12.246H86.6499V7.136H87.7419V12.456H89.9679V0.499999H87.7419ZM99.2067 9.88V8.536H103.533V6.464H94.9647V5.638H103.393V0.78H92.5987V2.852H101.055V3.664H92.6267V8.536H96.7987V9.88H91.9547V12.036H104.051V9.88H99.2067ZM111.89 5.736C115.04 5.736 117.378 4.882 117.378 3.02C117.378 1.158 115.04 0.303999 111.89 0.303999C108.74 0.303999 106.402 1.158 106.402 3.02C106.402 4.882 108.74 5.736 111.89 5.736ZM111.89 2.124C113.682 2.124 114.858 2.446 114.858 3.02C114.858 3.608 113.682 3.916 111.89 3.916C110.098 3.916 108.922 3.608 108.922 3.02C108.922 2.446 110.098 2.124 111.89 2.124ZM105.842 6.268V8.214H110.7V9.838H113.08V8.214H117.938V6.268H105.842ZM108.95 8.914H106.542V12.456H117.378V10.496H108.95V8.914ZM135.244 4.952L136 3.188L131.338 1.634C131.52 1.298 131.646 0.947999 131.73 0.569999L129.336 0.163999C128.972 1.886 126.704 2.964 124.422 3.048V4.938C126.662 4.896 128.706 4.224 130.078 3.118L135.244 4.952ZM124.072 5.4V7.206H136.168V5.4H124.072ZM133.158 8.396H127.082V7.766H124.772V12.456H135.468V7.766H133.158V8.396ZM127.082 10.748V10.076H133.158V10.748H127.082ZM149.215 3.16V0.499999H146.849V9.558H149.215V5.386H150.587V3.16H149.215ZM143.083 5.148H145.435V0.584H138.407V2.586H143.083V5.148ZM146.163 7.416V5.442C145.421 5.764 144.175 5.876 143.069 5.876H141.949V3.664H139.611V5.876H137.959V7.85H143.027C144.217 7.85 145.421 7.738 146.163 7.416ZM141.053 8.69H138.659V12.456H149.383V10.44H141.053V8.69Z" fill="white"/>
</svg>
