<svg width="200" height="24" viewBox="0 0 200 24" fill="none" xmlns="http://www.w3.org/2000/svg">
<path d="M0 0.319152H7.88761L13.3132 13.5412H13.5868L19.0123 0.319152H26.9V23.6628H20.6993V10.1673H20.5169L15.3193 23.4805H11.5807L6.38304 10.0761H6.20067V23.6628H0V0.319152Z" fill="white"/>
<path d="M52.5176 11.991C52.5176 14.5898 52.0123 16.7821 51.0016 18.5678C49.991 20.3459 48.627 21.6947 46.9096 22.6142C45.1923 23.5261 43.2774 23.982 41.1649 23.982C39.0372 23.982 37.1147 23.5223 35.3974 22.6028C33.6876 21.6757 32.3274 20.3231 31.3168 18.545C30.3137 16.7593 29.8122 14.5746 29.8122 11.991C29.8122 9.39219 30.3137 7.20372 31.3168 5.42559C32.3274 3.63985 33.6876 2.29106 35.3974 1.37919C37.1147 0.459731 39.0372 0 41.1649 0C43.2774 0 45.1923 0.459731 46.9096 1.37919C48.627 2.29106 49.991 3.63985 51.0016 5.42559C52.0123 7.20372 52.5176 9.39219 52.5176 11.991ZM45.9978 11.991C45.9978 10.5928 45.8116 9.41498 45.4393 8.45753C45.0745 7.49247 44.5312 6.76298 43.8093 6.26906C43.095 5.76753 42.2135 5.51677 41.1649 5.51677C40.1163 5.51677 39.231 5.76753 38.5091 6.26906C37.7948 6.76298 37.2515 7.49247 36.8791 8.45753C36.5144 9.41498 36.332 10.5928 36.332 11.991C36.332 13.3892 36.5144 14.5708 36.8791 15.5359C37.2515 16.4933 37.7948 17.2228 38.5091 17.7243C39.231 18.2183 40.1163 18.4652 41.1649 18.4652C42.2135 18.4652 43.095 18.2183 43.8093 17.7243C44.5312 17.2228 45.0745 16.4933 45.4393 15.5359C45.8116 14.5708 45.9978 13.3892 45.9978 11.991Z" fill="white"/>
<path d="M78.064 11.991C78.064 14.5898 77.5587 16.7821 76.548 18.5678C75.5374 20.3459 74.1734 21.6947 72.456 22.6142C70.7387 23.5261 68.8238 23.982 66.7113 23.982C64.5836 23.982 62.6611 23.5223 60.9438 22.6028C59.234 21.6757 57.8738 20.3231 56.8632 18.545C55.8601 16.7593 55.3586 14.5746 55.3586 11.991C55.3586 9.39219 55.8601 7.20372 56.8632 5.42559C57.8738 3.63985 59.234 2.29106 60.9438 1.37919C62.6611 0.459731 64.5836 0 66.7113 0C68.8238 0 70.7387 0.459731 72.456 1.37919C74.1734 2.29106 75.5374 3.63985 76.548 5.42559C77.5587 7.20372 78.064 9.39219 78.064 11.991ZM71.5442 11.991C71.5442 10.5928 71.358 9.41498 70.9857 8.45753C70.6209 7.49247 70.0776 6.76298 69.3557 6.26906C68.6414 5.76753 67.7599 5.51677 66.7113 5.51677C65.6627 5.51677 64.7774 5.76753 64.0555 6.26906C63.3412 6.76298 62.7979 7.49247 62.4256 8.45753C62.0608 9.41498 61.8784 10.5928 61.8784 11.991C61.8784 13.3892 62.0608 14.5708 62.4256 15.5359C62.7979 16.4933 63.3412 17.2228 64.0555 17.7243C64.7774 18.2183 65.6627 18.4652 66.7113 18.4652C67.7599 18.4652 68.6414 18.2183 69.3557 17.7243C70.0776 17.2228 70.6209 16.4933 70.9857 15.5359C71.358 14.5708 71.5442 13.3892 71.5442 11.991Z" fill="white"/>
<path d="M101.194 0.319152V23.6628H95.9052L87.4704 11.3983H87.3337V23.6628H80.9962V0.319152H86.3762L94.6742 12.5381H94.8565V0.319152H101.194Z" fill="white"/>
<path d="M104.192 23.6628V0.319152H114.268C116 0.319152 117.516 0.634505 118.816 1.26521C120.115 1.89592 121.126 2.80398 121.848 3.9894C122.57 5.17482 122.93 6.59581 122.93 8.25236C122.93 9.92411 122.558 11.3337 121.813 12.4811C121.076 13.6286 120.039 14.4948 118.702 15.0799C117.372 15.665 115.818 15.9576 114.04 15.9576H108.022V11.0335H112.763C113.508 11.0335 114.142 10.9424 114.667 10.76C115.199 10.57 115.605 10.2699 115.886 9.85952C116.175 9.44918 116.319 8.91346 116.319 8.25236C116.319 7.58366 116.175 7.04034 115.886 6.62241C115.605 6.19687 115.199 5.88532 114.667 5.68774C114.142 5.48257 113.508 5.37999 112.763 5.37999H110.529V23.6628H104.192ZM117.87 12.9485L123.706 23.6628H116.821L111.122 12.9485H117.87Z" fill="white"/>
<path d="M131.969 0.319152V23.6628H125.632V0.319152H131.969Z" fill="white"/>
<path d="M141.356 0.319152L146.143 16.7783H146.325L151.113 0.319152H158.271L150.566 23.6628H141.903L134.198 0.319152H141.356Z" fill="white"/>
<path d="M160.519 23.6628V0.319152H177.343V5.42559H166.857V9.43778H176.477V14.5442H166.857V18.5564H177.297V23.6628H160.519Z" fill="white"/>
<path d="M180.486 23.6628V0.319152H190.562C192.295 0.319152 193.811 0.634505 195.11 1.26521C196.41 1.89592 197.42 2.80398 198.142 3.9894C198.864 5.17482 199.225 6.59581 199.225 8.25236C199.225 9.92411 198.853 11.3337 198.108 12.4811C197.371 13.6286 196.334 14.4948 194.996 15.0799C193.666 15.665 192.112 15.9576 190.334 15.9576H184.316V11.0335H189.058C189.802 11.0335 190.437 10.9424 190.961 10.76C191.493 10.57 191.9 10.2699 192.181 9.85952C192.47 9.44918 192.614 8.91346 192.614 8.25236C192.614 7.58366 192.47 7.04034 192.181 6.62241C191.9 6.19687 191.493 5.88532 190.961 5.68774C190.437 5.48257 189.802 5.37999 189.058 5.37999H186.824V23.6628H180.486ZM194.164 12.9485L200 23.6628H193.115L187.416 12.9485H194.164Z" fill="white"/>
</svg>
